<svg id="Capa_1" enable-background="new 0 0 585.428 585.428" height="512" viewBox="0 0 585.428 585.428" width="512" xmlns="http://www.w3.org/2000/svg"><g><g><path d="m585.428 241.261h-275.563v344.168h275.563zm-189.806 291.57h-34.302v-34.302h34.302zm0-68.605h-34.302v-34.302h34.302zm68.604 68.605h-34.302v-34.302h34.302zm0-68.605h-34.302v-34.302h34.302zm68.605 68.605h-34.302v-34.302h34.302zm0-68.605h-34.302v-34.302h34.302zm0-68.604h-171.512v-102.908h171.512z"/><path d="m395.622 327.017h102.907v34.302h-102.907z"/><path d="m275.563 68.605h58.555l-58.555-58.556z"/><path d="m275.563 378.47h-85.756v-34.302h85.756v-68.605h-85.756v-34.302h85.756v-34.302h68.605v-104.052h-102.907v-102.907h-241.261v515.68h275.563zm-85.756-240.117h102.907v34.302h-102.907zm-85.756 281.522-46.428-46.428 24.253-24.253 22.175 22.175 22.177-22.177 24.253 24.253zm0-102.908-46.428-46.428 24.253-24.253 22.175 22.175 22.177-22.177 24.253 24.253zm0-102.907-46.428-46.428 24.253-24.253 22.175 22.175 22.177-22.177 24.253 24.253z"/><path d="m447.075 206.958v-206.958h-133.056l64.451 64.451v142.507z"/></g></g></svg>