<svg id="Capa_1" enable-background="new 0 0 512 512" height="512" viewBox="0 0 512 512" width="512" xmlns="http://www.w3.org/2000/svg"><g><path d="m302.15 270.775h-11.84c-8.28 0-15-6.72-15-15s6.72-15 15-15h17c8.29 0 15 6.72 15 15 0 .84-.07 1.66-.2 2.45 20.81-10.91 44.48-17.08 69.57-17.08v-48.11h-391.68v183.46c0 8.3 6.73 15.02 15.02 15.02h226.3c0-49.4 23.94-93.32 60.83-120.74zm-201.69 60.9h-17c-8.28 0-15-6.72-15-15 0-8.29 6.72-15 15-15h17c8.29 0 15 6.71 15 15 0 8.28-6.71 15-15 15zm0-60.9h-17c-8.28 0-15-6.72-15-15s6.72-15 15-15h17c8.29 0 15 6.72 15 15s-6.71 15-15 15zm103.63 60.9h-17c-8.29 0-15-6.72-15-15 0-8.29 6.71-15 15-15h17c8.28 0 15 6.71 15 15 0 8.28-6.72 15-15 15zm0-60.9h-17c-8.29 0-15-6.72-15-15s6.71-15 15-15h17c8.28 0 15 6.72 15 15s-6.72 15-15 15z"/><path d="m391.68 271.185c-66.34 0-120.32 53.98-120.32 120.33 0 66.34 53.98 120.32 120.32 120.32 66.35 0 120.32-53.98 120.32-120.32 0-66.35-53.97-120.33-120.32-120.33zm53.35 137.17h-36.51v36.51c0 9.3-7.54 16.84-16.84 16.84-9.31 0-16.85-7.54-16.85-16.84v-36.51h-36.5c-9.31 0-16.85-7.54-16.85-16.84 0-9.31 7.54-16.85 16.85-16.85h36.5v-36.5c0-9.31 7.54-16.85 16.85-16.85 9.3 0 16.84 7.54 16.84 16.85v36.5h36.51c9.3 0 16.84 7.54 16.84 16.85 0 9.3-7.54 16.84-16.84 16.84z"/><path d="m391.682 79.394c0-8.291-6.719-15.02-15.02-15.02h-35.942v-49.209c0-8.284-6.716-15-15-15h-62.837c-8.284 0-15 6.716-15 15v49.209h-104.084v-49.209c0-8.284-6.716-15-15-15h-62.837c-8.284 0-15 6.716-15 15v49.209h-35.942c-8.291.001-15.02 6.729-15.02 15.02v83.599h391.682z"/></g></svg>