<?xml version="1.0" encoding="UTF-8"?>
<svg xmlns="http://www.w3.org/2000/svg" viewBox="0 0 64 64" width="512" height="512"><g id="credit"><rect x="36" y="8" width="4" height="5"/><path d="M26,16a2,2,0,0,0,2-2,1.973,1.973,0,0,0-.076-.515,3.851,3.851,0,0,1-3.848,0A1.973,1.973,0,0,0,24,14,2,2,0,0,0,26,16Z"/><path d="M11,31a7,7,0,1,0-7-7A7.008,7.008,0,0,0,11,31ZM7.293,21.707l1.414-1.414L11,22.586l2.293-2.293,1.414,1.414L12.414,24l2.293,2.293-1.414,1.414L11,25.414,8.707,27.707,7.293,26.293,9.586,24Z"/><path d="M16.64,31H47.36A8.949,8.949,0,0,1,45,19.9V5a1,1,0,0,0-1-1H20a1,1,0,0,0-1,1V19.9A8.949,8.949,0,0,1,16.64,31ZM28,29H26V20h2ZM34,7a1,1,0,0,1,1-1h6a1,1,0,0,1,1,1v7a1,1,0,0,1-1,1H35a1,1,0,0,1-1-1Zm0,11a1,1,0,0,1,1-1h6a1,1,0,0,1,1,1V28a1,1,0,0,1-1,1H35a1,1,0,0,1-1-1ZM22,10a4,4,0,0,1,8,0,3.951,3.951,0,0,1-.551,1.99,4,4,0,1,1-6.9,0A3.951,3.951,0,0,1,22,10Zm0,10h2v3H22Zm0,5h2v4H22Z"/><rect x="36" y="19" width="4" height="8"/><circle cx="26" cy="10" r="2"/><path d="M53,31a7,7,0,1,0-7-7A7.008,7.008,0,0,0,53,31Zm-3.707-9.293,1.414-1.414L53,22.586l2.293-2.293,1.414,1.414L54.414,24l2.293,2.293-1.414,1.414L53,25.414l-2.293,2.293-1.414-1.414L51.586,24Z"/><path d="M53,33a.935.935,0,0,1,.43.1l6.25,2.96c-.1.69-.23,1.36-.38,2.03L54.88,36l1.05,2.63a.98.98,0,0,1,.04.61l-1,4a.993.993,0,0,1-.17.36l-3,4a1,1,0,0,1-1.77-.36l-1.57-6.28-2.62,2.61-2.69,6.29L45.8,53.4a1,1,0,0,1-.66,1.59l-5.81.83.43,1.31,3.17.64a27.965,27.965,0,0,1-3.74,1.29l-.39-.08a1,1,0,0,1-.75-.66l-1-3a1,1,0,0,1,.81-1.31l5.33-.76L41.2,50.6a1.007,1.007,0,0,1-.12-.99l3-7a.988.988,0,0,1,.21-.32l4-4a1.011,1.011,0,0,1,.98-.25,1,1,0,0,1,.7.72l1.49,5.96,1.62-2.16.87-3.49-1.88-4.7a1.007,1.007,0,0,1,.25-1.1A.977.977,0,0,1,53,33H16.39l1.24,3.73,5.05-1.68a.989.989,0,0,1,.45-.04l15,2a1.056,1.056,0,0,1,.58.28l2,2A1.033,1.033,0,0,1,41,40v3a1,1,0,0,1-.63.93L31,47.68v3.91l4.71,4.7a1.032,1.032,0,0,1,.28.87,1,1,0,0,1-.54.73l-4.17,2.09a29.176,29.176,0,0,1-3.77-.36l5.8-2.89-4.02-4.02A1.033,1.033,0,0,1,29,52V47a1,1,0,0,1,.63-.93L39,42.32V40.41l-1.47-1.46L23.1,37.02l-5.78,1.93a1.011,1.011,0,0,1-1.27-.63l-1.17-3.51L13,39.21V48a.984.984,0,0,1-.53.88.977.977,0,0,1-1.02-.05L9.6,47.6l-.23.86a25.44,25.44,0,0,1-1.46-2.25l.12-.47a1.05,1.05,0,0,1,.62-.68.991.991,0,0,1,.9.11l1.45.96V39a1.006,1.006,0,0,1,.08-.39L13.48,33H2C2,49.54,15.46,62,32,62S62,49.54,62,33Z"/><path d="M52.219,12.625a1,1,0,0,0,1.562,0l4-5A1,1,0,0,0,57,6H56V3a1,1,0,0,0-1-1H51a1,1,0,0,0-1,1V6H49a1,1,0,0,0-.781,1.625Z"/><path d="M10.219,12.625a1,1,0,0,0,1.562,0l4-5A1,1,0,0,0,15,6H14V3a1,1,0,0,0-1-1H9A1,1,0,0,0,8,3V6H7a1,1,0,0,0-.781,1.625Z"/></g></svg>
