<svg height="512pt" viewBox="0 0 512 512" width="512pt" xmlns="http://www.w3.org/2000/svg"><path d="m482 91v-60h-295.191406l20.003906 60zm0 0"/><path d="m185.1875 121-39.996094-121h-145.191406v151h512v-30zm0 0"/><path d="m166 478.480469 31.878906-19.285157c8.253906 7.042969 17.691406 12.585938 28.121094 16.292969v36.511719h60v-36.511719c10.429688-3.707031 19.863281-9.25 28.121094-16.292969l31.878906 19.285157 30-51.960938-31.648438-19.152343c.980469-5.324219 1.648438-10.761719 1.648438-16.367188 0-5.609375-.667969-11.046875-1.648438-16.367188l31.648438-19.152343-30-51.960938-31.878906 19.285157c-8.253906-7.042969-17.691406-12.585938-28.121094-16.292969v-35.511719h-60v35.511719c-10.429688 3.707031-19.863281 9.25-28.121094 16.292969l-31.878906-19.285157-30 51.960938 31.648438 19.152343c-.980469 5.320313-1.648438 10.761719-1.648438 16.367188s.667969 11.046875 1.648438 16.367188l-31.648438 19.152343zm90-117.480469c16.570312 0 30 13.429688 30 30 0 16.566406-13.429688 30-30 30s-30-13.433594-30-30c0-16.570312 13.429688-30 30-30zm0 0"/><path d="m0 451h115.484375l-20.164063-34.921875 40.679688-24.625c0-.144531 0-.761719 0-.90625l-40.679688-24.625 60-103.914063 40.679688 24.59375v-45.601562h120v45.601562l40.679688-24.59375 60 103.914063-40.679688 24.625v.90625l40.679688 24.625-20.164063 34.921875h115.484375v-270h-512zm0 0"/></svg>