<svg height="512pt" viewBox="0 0 512 512" width="512pt" xmlns="http://www.w3.org/2000/svg"><path d="m497.03125 446.402344h-482.0625c-8.269531 0-14.96875 4.054687-14.96875 9.058594v47.125c0 5 6.699219 9.054687 14.96875 9.054687h482.0625c8.269531 0 14.96875-4.054687 14.96875-9.054687v-47.125c0-5.003907-6.699219-9.058594-14.96875-9.058594zm0 0"/><path d="m245.074219 324.175781c-11.875 0-23.335938-1.789062-34.136719-5.101562 2.394531 22.746093 21.691406 40.535156 45.0625 40.535156 23.375 0 42.667969-17.789063 45.0625-40.535156-10.800781 3.3125-22.261719 5.101562-34.132812 5.101562zm0 0"/><path d="m389.886719 346.570312c-17.832031-13.253906-37.65625-22.8125-58.667969-28.414062-2.015625 39.742188-34.984375 71.453125-75.21875 71.453125s-73.199219-31.710937-75.21875-71.453125c-21.011719 5.601562-40.835938 15.160156-58.667969 28.414062-25.304687 18.8125-44.691406 43.566407-56.71875 72.222657h381.214844c-12.027344-28.65625-31.417969-53.410157-56.722656-72.222657zm0 0"/><path d="m375.4375 250.195312c8.324219-2.105468 15.972656-5.71875 22.378906-10.675781 10.90625-8.441406 17.164063-20.25 17.164063-32.402343 0-12.144532-6.257813-23.957032-17.164063-32.398438-4.734375-3.664062-10.148437-6.59375-16.007812-8.726562 1.101562 6.425781 1.683594 13.027343 1.683594 19.765624v21.851563c0 15.023437-2.855469 29.386719-8.054688 42.585937zm0 0"/><path d="m114.183594 239.519531c6.40625 4.957031 14.054687 8.570313 22.378906 10.675781-5.199219-13.195312-8.054688-27.5625-8.054688-42.582031v-21.855469c0-6.738281.582032-13.339843 1.683594-19.765624-5.863281 2.132812-11.273437 5.0625-16.007812 8.726562-10.90625 8.441406-17.164063 20.253906-17.164063 32.402344 0 12.148437 6.257813 23.957031 17.164063 32.398437zm0 0"/><path d="m289.582031 215.347656h63.5625c.226563-2.546875.347657-5.128906.347657-7.734375v-21.855469c0-47.730468-38.832032-86.566406-86.5625-86.566406h-21.855469c-47.734375 0-86.566407 38.832032-86.566407 86.566406v21.855469c0 47.730469 38.832032 86.5625 86.566407 86.5625h21.855469c34.210937 0 63.847656-19.949219 77.894531-48.828125h-55.242188c-8.285156 0-15-6.714844-15-15 0-8.28125 6.714844-15 15-15zm0 0"/><path d="m119.933594 137.800781 23.144531-8.425781c19.902344-35.859375 58.15625-60.183594 101.992187-60.183594h21.855469c43.835938 0 82.089844 24.328125 101.992188 60.183594l23.148437 8.425781c6.761719 2.460938 13.09375 5.640625 18.898438 9.476563.003906-.242188.007812-.480469.007812-.722656 0-80.808594-65.742187-146.554688-146.554687-146.554688h-16.839844c-80.8125 0-146.554687 65.742188-146.554687 146.554688 0 .242187.003906.480468.007812.71875 5.804688-3.832032 12.136719-7.011719 18.902344-9.472657zm0 0"/></svg>